<?xml version="1.0" encoding="UTF-8"?>
<svg id="Layer_1" data-name="Layer 1" xmlns="http://www.w3.org/2000/svg" viewBox="0 0 711 884">
  <defs>
    <style>
      .cls-1 {
        fill: #307450;
      }

      .cls-2 {
        fill: #fff;
      }
    </style>
  </defs>
  <path class="cls-1" d="M535.88.1H.41v883.79h710.18V174.8L535.88.1ZM544.3,49.15l117.24,117.24h-117.24V49.15ZM29.14,855.16v-504.51h436.88v-217.41H29.14V28.84h486.43v166.29h166.29v660.04H29.14Z"/>
  <g>
    <path class="cls-2" d="M46.41,304.93l45.15-68.94-40.91-63.17h31.18l26.49,42.45,25.95-42.45h30.91l-41.1,64.17,45.15,67.95h-32.18l-29.29-45.69-29.38,45.69h-31.99Z"/>
    <path class="cls-2" d="M191.05,304.93v-131.03h26.68v108.77h66.32v22.26h-93Z"/>
    <path class="cls-2" d="M303.69,261.94l25.95-2.53c1.56,8.71,4.73,15.11,9.5,19.2,4.78,4.09,11.22,6.13,19.33,6.13,8.59,0,15.06-1.81,19.42-5.45,4.36-3.63,6.54-7.88,6.54-12.75,0-3.12-.92-5.78-2.75-7.98-1.83-2.19-5.04-4.1-9.6-5.72-3.13-1.08-10.25-3.01-21.36-5.77-14.3-3.54-24.33-7.9-30.1-13.06-8.11-7.27-12.16-16.13-12.16-26.59,0-6.73,1.9-13.02,5.72-18.88,3.82-5.86,9.32-10.32,16.49-13.38,7.18-3.06,15.85-4.59,26-4.59,16.58,0,29.06,3.63,37.44,10.9,8.38,7.27,12.78,16.97,13.2,29.11l-26.68,1.17c-1.14-6.79-3.59-11.67-7.34-14.64-3.75-2.97-9.39-4.46-16.9-4.46s-13.82,1.59-18.2,4.78c-2.83,2.04-4.24,4.78-4.24,8.2,0,3.13,1.33,5.8,3.97,8.02,3.36,2.82,11.53,5.77,24.51,8.83,12.98,3.06,22.57,6.23,28.8,9.5,6.21,3.28,11.08,7.75,14.6,13.43,3.51,5.68,5.27,12.69,5.27,21.04,0,7.57-2.1,14.66-6.31,21.26-4.2,6.61-10.15,11.52-17.85,14.73-7.69,3.22-17.27,4.82-28.75,4.82-16.7,0-29.52-3.86-38.48-11.58-8.95-7.72-14.3-18.97-16.04-33.75Z"/>
  </g>
  <path class="cls-1" d="M575.83,431.22H111.78v326.65h485.6v-326.65h-21.55ZM421.14,452.77v80.15h-133.13v-80.15h133.13ZM421.14,554.47v80.15h-133.13v-80.15h133.13ZM133.33,452.77h133.13v80.15h-133.13v-80.15ZM133.33,554.47h133.13v80.15h-133.13v-80.15ZM133.33,736.32v-80.15h133.13v80.15h-133.13ZM288.01,736.32v-80.15h133.13v80.15h-133.13ZM575.83,736.32h-133.14v-80.15h133.14v80.15ZM575.83,634.62h-133.14v-80.15h133.14v80.15ZM575.83,532.92h-133.14v-80.15h133.14v80.15Z"/>
</svg>